<mxfile host="app.diagrams.net" agent="Mozilla/5.0 (Windows NT 10.0; Win64; x64) AppleWebKit/537.36 (KHTML, like Gecko) Chrome/134.0.0.0 Safari/537.36" version="26.1.1">
  <diagram name="Página-1" id="HZ70Y9n9aT6gi59wIT3N">
    <mxGraphModel dx="1114" dy="592" grid="1" gridSize="10" guides="1" tooltips="1" connect="1" arrows="1" fold="1" page="1" pageScale="1" pageWidth="827" pageHeight="1169" math="0" shadow="0">
      <root>
        <mxCell id="0" />
        <mxCell id="1" parent="0" />
        <mxCell id="qxhO2JXS2i3P5hvh13s_-4" style="rounded=0;orthogonalLoop=1;jettySize=auto;html=1;exitX=0.25;exitY=0;exitDx=0;exitDy=0;entryX=0.5;entryY=1;entryDx=0;entryDy=0;endArrow=none;startFill=0;" edge="1" parent="1" source="qxhO2JXS2i3P5hvh13s_-2" target="qxhO2JXS2i3P5hvh13s_-3">
          <mxGeometry relative="1" as="geometry" />
        </mxCell>
        <mxCell id="qxhO2JXS2i3P5hvh13s_-6" style="rounded=0;orthogonalLoop=1;jettySize=auto;html=1;exitX=0.5;exitY=0;exitDx=0;exitDy=0;entryX=0.5;entryY=1;entryDx=0;entryDy=0;endArrow=none;startFill=0;" edge="1" parent="1" source="qxhO2JXS2i3P5hvh13s_-2" target="qxhO2JXS2i3P5hvh13s_-5">
          <mxGeometry relative="1" as="geometry" />
        </mxCell>
        <mxCell id="qxhO2JXS2i3P5hvh13s_-12" style="rounded=0;orthogonalLoop=1;jettySize=auto;html=1;exitX=0.75;exitY=0;exitDx=0;exitDy=0;entryX=0.5;entryY=1;entryDx=0;entryDy=0;endArrow=none;startFill=0;" edge="1" parent="1" source="qxhO2JXS2i3P5hvh13s_-2" target="qxhO2JXS2i3P5hvh13s_-10">
          <mxGeometry relative="1" as="geometry" />
        </mxCell>
        <mxCell id="qxhO2JXS2i3P5hvh13s_-2" value="Presente" style="html=1;dashed=0;whiteSpace=wrap;" vertex="1" parent="1">
          <mxGeometry x="490" y="220" width="100" height="50" as="geometry" />
        </mxCell>
        <mxCell id="qxhO2JXS2i3P5hvh13s_-3" value="&lt;u&gt;id&lt;/u&gt;" style="ellipse;whiteSpace=wrap;html=1;align=center;" vertex="1" parent="1">
          <mxGeometry x="440" y="150" width="50" height="40" as="geometry" />
        </mxCell>
        <mxCell id="qxhO2JXS2i3P5hvh13s_-5" value="Nome" style="ellipse;whiteSpace=wrap;html=1;align=center;" vertex="1" parent="1">
          <mxGeometry x="510" y="140" width="60" height="40" as="geometry" />
        </mxCell>
        <mxCell id="qxhO2JXS2i3P5hvh13s_-8" value="Preço" style="ellipse;whiteSpace=wrap;html=1;align=center;" vertex="1" parent="1">
          <mxGeometry x="650" y="200" width="60" height="40" as="geometry" />
        </mxCell>
        <mxCell id="qxhO2JXS2i3P5hvh13s_-9" style="rounded=0;orthogonalLoop=1;jettySize=auto;html=1;exitX=1;exitY=0.5;exitDx=0;exitDy=0;entryX=0;entryY=0.5;entryDx=0;entryDy=0;endArrow=none;startFill=0;" edge="1" parent="1" source="qxhO2JXS2i3P5hvh13s_-2" target="qxhO2JXS2i3P5hvh13s_-8">
          <mxGeometry relative="1" as="geometry" />
        </mxCell>
        <mxCell id="qxhO2JXS2i3P5hvh13s_-10" value="Tipo" style="ellipse;whiteSpace=wrap;html=1;align=center;" vertex="1" parent="1">
          <mxGeometry x="590" y="150" width="60" height="40" as="geometry" />
        </mxCell>
        <mxCell id="qxhO2JXS2i3P5hvh13s_-19" style="rounded=0;orthogonalLoop=1;jettySize=auto;html=1;entryX=0;entryY=0.5;entryDx=0;entryDy=0;endArrow=none;startFill=0;" edge="1" parent="1" source="qxhO2JXS2i3P5hvh13s_-15" target="qxhO2JXS2i3P5hvh13s_-2">
          <mxGeometry relative="1" as="geometry" />
        </mxCell>
        <mxCell id="qxhO2JXS2i3P5hvh13s_-15" value="Recebe" style="shape=rhombus;html=1;dashed=0;whiteSpace=wrap;perimeter=rhombusPerimeter;" vertex="1" parent="1">
          <mxGeometry x="280" y="220" width="90" height="50" as="geometry" />
        </mxCell>
        <mxCell id="qxhO2JXS2i3P5hvh13s_-17" style="edgeStyle=orthogonalEdgeStyle;rounded=0;orthogonalLoop=1;jettySize=auto;html=1;entryX=0;entryY=0.5;entryDx=0;entryDy=0;endArrow=none;startFill=0;" edge="1" parent="1" source="qxhO2JXS2i3P5hvh13s_-16" target="qxhO2JXS2i3P5hvh13s_-15">
          <mxGeometry relative="1" as="geometry" />
        </mxCell>
        <mxCell id="qxhO2JXS2i3P5hvh13s_-23" style="rounded=0;orthogonalLoop=1;jettySize=auto;html=1;exitX=0.75;exitY=0;exitDx=0;exitDy=0;entryX=0.5;entryY=1;entryDx=0;entryDy=0;endArrow=none;startFill=0;" edge="1" parent="1" source="qxhO2JXS2i3P5hvh13s_-16" target="qxhO2JXS2i3P5hvh13s_-22">
          <mxGeometry relative="1" as="geometry" />
        </mxCell>
        <mxCell id="qxhO2JXS2i3P5hvh13s_-24" style="edgeStyle=orthogonalEdgeStyle;rounded=0;orthogonalLoop=1;jettySize=auto;html=1;exitX=0.5;exitY=0;exitDx=0;exitDy=0;endArrow=none;startFill=0;entryX=0.5;entryY=1;entryDx=0;entryDy=0;" edge="1" parent="1" source="qxhO2JXS2i3P5hvh13s_-16" target="qxhO2JXS2i3P5hvh13s_-25">
          <mxGeometry relative="1" as="geometry">
            <mxPoint x="130" y="180" as="targetPoint" />
          </mxGeometry>
        </mxCell>
        <mxCell id="qxhO2JXS2i3P5hvh13s_-27" style="rounded=0;orthogonalLoop=1;jettySize=auto;html=1;exitX=0;exitY=0;exitDx=0;exitDy=0;entryX=0.5;entryY=1;entryDx=0;entryDy=0;endArrow=none;startFill=0;" edge="1" parent="1" source="qxhO2JXS2i3P5hvh13s_-16" target="qxhO2JXS2i3P5hvh13s_-26">
          <mxGeometry relative="1" as="geometry" />
        </mxCell>
        <mxCell id="qxhO2JXS2i3P5hvh13s_-16" value="Pessoa" style="html=1;dashed=0;whiteSpace=wrap;" vertex="1" parent="1">
          <mxGeometry x="80" y="220" width="100" height="50" as="geometry" />
        </mxCell>
        <mxCell id="qxhO2JXS2i3P5hvh13s_-20" value="N" style="text;html=1;align=center;verticalAlign=middle;resizable=0;points=[];autosize=1;strokeColor=none;fillColor=none;" vertex="1" parent="1">
          <mxGeometry x="180" y="220" width="30" height="30" as="geometry" />
        </mxCell>
        <mxCell id="qxhO2JXS2i3P5hvh13s_-21" value="N" style="text;html=1;align=center;verticalAlign=middle;resizable=0;points=[];autosize=1;strokeColor=none;fillColor=none;" vertex="1" parent="1">
          <mxGeometry x="460" y="220" width="30" height="30" as="geometry" />
        </mxCell>
        <mxCell id="qxhO2JXS2i3P5hvh13s_-22" value="&lt;u&gt;id&lt;/u&gt;" style="ellipse;whiteSpace=wrap;html=1;align=center;" vertex="1" parent="1">
          <mxGeometry x="180" y="150" width="50" height="40" as="geometry" />
        </mxCell>
        <mxCell id="qxhO2JXS2i3P5hvh13s_-25" value="Nome" style="ellipse;whiteSpace=wrap;html=1;align=center;" vertex="1" parent="1">
          <mxGeometry x="100" y="130" width="60" height="40" as="geometry" />
        </mxCell>
        <mxCell id="qxhO2JXS2i3P5hvh13s_-26" value="Tipo" style="ellipse;whiteSpace=wrap;html=1;align=center;" vertex="1" parent="1">
          <mxGeometry x="30" y="150" width="60" height="40" as="geometry" />
        </mxCell>
      </root>
    </mxGraphModel>
  </diagram>
</mxfile>
